<?xml version="1.0" encoding="UTF-8"?>
<svg id="Layer_1" data-name="Layer 1" xmlns="http://www.w3.org/2000/svg" width="256" height="256" xmlns:xlink="http://www.w3.org/1999/xlink" viewBox="0 0 256 256">
  <defs>
    <linearGradient id="linear-gradient" x1="32.39" y1="36.98" x2="208.34" y2="204.48" gradientUnits="userSpaceOnUse">
      <stop offset="0" stop-color="#4e342e"/>
      <stop offset="1" stop-color="#3e2723"/>
    </linearGradient>
    <linearGradient id="linear-gradient-2" x1="110.62" y1="111.71" x2="216.16" y2="212.18" gradientUnits="userSpaceOnUse">
      <stop offset="0" stop-color="#754c24"/>
      <stop offset=".21" stop-color="#5f3d23"/>
      <stop offset=".46" stop-color="#4c3123"/>
      <stop offset=".72" stop-color="#412923"/>
      <stop offset="1" stop-color="#3e2723"/>
    </linearGradient>
  </defs>
  <rect x="-.25" y="-.25" width="256.49" height="256.49" rx="83.8" ry="83.8" fill="gold"/>
  <path d="M248.98,86.07v83.86c0,43.66-35.39,79.05-79.05,79.05h-83.86c-26.81,0-50.5-13.35-64.79-33.76-8.99-12.82-14.26-28.44-14.26-45.29v-83.86C7.02,42.41,42.41,7.02,86.07,7.02h83.86c23.94,0,45.39,10.64,59.89,27.45,11.94,13.85,19.16,31.88,19.16,51.6Z" fill="url(#linear-gradient)"/>
  <path d="M248.98,86.07v83.86c0,43.66-35.39,79.05-79.05,79.05h-83.86c-26.81,0-50.5-13.35-64.79-33.76,26.88-44.23,92.91-133.85,208.54-180.75,11.94,13.85,19.16,31.88,19.16,51.6Z" fill="url(#linear-gradient-2)"/>
  <g>
    <path d="M194.94,83.9h-108.62v-7.03l104.36-27.46c3.05-.8,4.87-3.93,4.07-6.98s-3.92-4.87-6.98-4.08l-108.62,28.58c-2.51.66-4.26,2.93-4.26,5.53v11.43h-17.15c-6.3,0-11.43,5.13-11.43,11.43v91.47c0,6.31,5.13,11.43,11.43,11.43h137.21c6.3,0,11.43-5.13,11.43-11.43v-91.47c0-6.31-5.13-11.43-11.43-11.43ZM57.73,186.81v-91.47h137.21v91.47s-137.21,0-137.21,0Z" fill="gold"/>
    <path d="M183.51,101.05h-114.34c-3.16,0-5.72,2.56-5.72,5.72v22.87c0,3.16,2.56,5.72,5.72,5.72h114.34c3.16,0,5.72-2.56,5.72-5.72v-22.87c0-3.16-2.56-5.72-5.72-5.72ZM74.89,112.49h51.45v11.43h-51.45v-11.43ZM177.79,123.92h-40.02v-11.43h40.02v11.43Z" fill="gold"/>
    <path d="M120.62,158.22v11.43c0,3.16-2.56,5.72-5.72,5.72s-5.72-2.56-5.72-5.72v-11.43c0-3.16,2.56-5.72,5.72-5.72s5.72,2.56,5.72,5.72Z" fill="gold"/>
    <path d="M103.47,152.5v22.87c0,3.16-2.56,5.72-5.72,5.72s-5.72-2.56-5.72-5.72v-22.87c0-3.16,2.56-5.72,5.72-5.72s5.72,2.56,5.72,5.72Z" fill="gold"/>
    <path d="M137.77,152.5v22.87c0,3.16-2.56,5.72-5.72,5.72s-5.72-2.56-5.72-5.72v-22.87c0-3.16,2.56-5.72,5.72-5.72s5.72,2.56,5.72,5.72Z" fill="gold"/>
    <path d="M86.32,158.22v11.43c0,3.16-2.56,5.72-5.72,5.72s-5.72-2.56-5.72-5.72v-11.43c0-3.16,2.56-5.72,5.72-5.72s5.72,2.56,5.72,5.72Z" fill="gold"/>
    <path d="M166.36,146.79c-9.46,0-17.15,7.69-17.15,17.15s7.69,17.15,17.15,17.15,17.15-7.69,17.15-17.15-7.69-17.15-17.15-17.15ZM166.36,169.65c-3.15,0-5.72-2.57-5.72-5.72s2.56-5.72,5.72-5.72,5.72,2.57,5.72,5.72-2.56,5.72-5.72,5.72Z" fill="gold"/>
  </g>
</svg>